<?xml version="1.0" standalone="no"?>
<!DOCTYPE svg PUBLIC "-//W3C//DTD SVG 20010904//EN"
 "http://www.w3.org/TR/2001/REC-SVG-20010904/DTD/svg10.dtd">
<svg version="1.0" xmlns="http://www.w3.org/2000/svg"
 width="6500.000000pt" height="2889.000000pt" viewBox="0 0 6500.000000 2889.000000"
 preserveAspectRatio="xMidYMid meet">
<metadata>
Created by potrace 1.16, written by Peter Selinger 2001-2019
</metadata>
<g transform="translate(0.000000,2889.000000) scale(0.100000,-0.100000)"
fill="#000000" stroke="none">
<path d="M10 28880 c0 -3 -1 -6502 -3 -14442 l-2 -14438 27930 1 c15361 0
27924 3 27918 6 -7 2 -13 9 -13 15 0 13 -56 68 -69 68 -6 0 -11 5 -11 11 0 5
-11 22 -25 37 -14 15 -36 42 -51 60 -14 17 -32 32 -41 32 -27 0 -43 28 -43 74
0 44 -1 46 -30 46 -27 0 -30 3 -30 30 0 23 -4 30 -20 30 -11 0 -20 -4 -20 -10
0 -5 -12 -10 -28 -10 -21 0 -30 7 -41 31 -11 24 -11 33 -1 39 6 4 12 11 13 16
2 11 128 56 135 49 3 -3 -10 -12 -29 -20 l-34 -16 32 6 c24 5 36 1 52 -16 12
-13 21 -17 21 -10 0 7 -7 19 -15 27 -26 27 -16 39 53 62 116 40 304 111 374
140 56 24 65 31 57 45 -8 13 -6 15 7 10 9 -3 15 -2 12 3 -2 5 -11 24 -18 41
-13 31 -40 46 -40 23 0 -15 -19 -12 -36 4 -16 17 -19 36 -4 36 15 0 12 36 -5
50 -12 10 -16 9 -21 -4 -3 -9 -13 -16 -21 -16 -9 0 -13 6 -10 14 3 8 9 31 13
50 5 28 3 37 -10 42 -9 3 -16 12 -16 18 0 7 -12 28 -26 47 -21 28 -25 41 -20
76 3 23 2 43 -2 45 -4 2 -15 19 -24 38 -10 19 -22 42 -27 50 -17 27 -58 125
-65 154 -6 24 -9 27 -18 15 -8 -12 -9 -11 -5 3 3 9 -2 32 -12 52 -27 52 -36
173 -17 211 11 22 14 45 9 85 -3 30 -9 57 -13 60 -6 5 -13 49 -40 275 -14 107
-12 365 1 365 8 0 10 17 7 52 -3 28 1 78 9 111 7 33 11 68 8 78 -7 21 11 27
18 7 2 -7 4 7 4 32 0 42 9 96 31 180 10 37 18 29 25 -25 3 -16 3 -5 2 26 -4
75 3 109 21 102 8 -3 11 -9 8 -14 -3 -5 0 -9 6 -9 8 0 9 7 5 18 -14 36 -18 82
-6 82 6 0 11 18 12 43 l1 42 9 -32 c13 -45 20 -41 19 9 -1 82 0 90 12 111 17
31 21 60 7 51 -8 -4 -9 1 -4 16 4 13 3 20 -2 17 -5 -3 -10 3 -11 14 -1 10 -3
28 -4 38 -1 11 -6 17 -10 15 -12 -8 -10 4 8 42 9 19 20 34 24 34 4 0 11 11 14
25 4 14 11 25 16 25 6 0 10 7 10 15 0 9 11 33 25 55 14 22 25 42 25 46 0 3 6
20 14 37 8 18 17 45 20 60 5 20 11 27 21 23 10 -4 15 1 15 17 0 12 9 37 21 56
13 22 17 36 10 41 -8 4 -7 14 2 33 10 22 19 27 50 27 25 0 37 4 37 14 0 19
-23 33 -28 18 -2 -7 -11 -12 -20 -12 -12 1 -8 9 16 30 17 16 32 36 32 44 0 8
12 17 26 20 15 4 30 18 38 37 11 27 19 32 55 33 37 2 41 0 41 -22 l0 -23 29
20 c16 12 34 21 40 21 6 0 11 4 11 10 0 5 9 18 20 28 22 21 14 36 -24 43 -11
2 -21 10 -24 18 -3 10 0 12 12 8 13 -5 16 0 16 23 0 30 8 35 51 31 9 -1 34 16
56 39 22 22 49 40 58 40 10 0 27 10 39 23 23 25 81 57 103 57 7 0 13 7 13 15
0 8 6 15 14 15 7 0 19 7 26 15 7 8 21 15 31 15 11 0 19 4 19 8 0 5 16 14 35
22 28 11 35 19 35 42 0 21 5 28 20 28 11 0 20 5 20 10 0 17 28 11 33 -7 3 -12
5 -10 6 7 1 19 10 29 41 42 26 11 40 13 40 5 0 -8 4 -7 12 1 7 7 20 12 29 12
10 0 24 6 31 13 7 8 24 19 37 26 15 9 21 19 18 31 -3 11 0 21 6 23 5 1 11 14
12 28 1 17 8 25 26 27 13 2 29 8 34 12 17 13 117 40 150 40 33 0 71 30 58 45
-5 4 -3 5 4 2 6 -4 13 -3 15 3 1 5 53 15 113 23 l110 13 16 -33 c9 -18 12 -30
8 -27 -5 3 -9 0 -9 -5 0 -6 7 -11 16 -11 10 0 13 -6 9 -18 -5 -17 1 -19 50
-21 32 -1 55 3 55 9 0 5 18 10 40 10 33 0 40 3 40 20 0 17 7 20 39 20 22 0 41
-5 43 -12 3 -7 10 -8 17 -4 9 6 11 20 7 45 -6 38 -51 193 -66 226 -5 11 -21
54 -36 95 -57 163 -60 173 -46 178 6 2 12 12 12 23 0 11 7 22 15 25 8 4 15 17
15 30 0 24 0 24 120 24 104 0 120 2 120 16 0 14 12 16 97 12 53 -2 91 -2 85 0
-7 2 -10 7 -7 12 8 13 -169 411 -250 562 -26 48 -43 93 -39 99 4 8 3 9 -4 5
-7 -4 -24 17 -44 56 -46 89 -49 96 -35 104 7 4 8 3 4 -1 -11 -12 32 -33 55
-27 18 4 18 6 -3 28 -19 20 -21 27 -11 49 14 31 33 39 67 31 20 -5 25 -13 25
-38 0 -17 -7 -40 -17 -50 -15 -17 -15 -18 0 -18 15 0 15 -2 0 -20 -11 -12 -30
-20 -50 -20 -20 0 -33 -5 -33 -12 0 -10 21 -12 82 -8 55 3 69 5 41 8 -54 4
-57 22 -4 22 31 0 40 4 44 21 4 15 11 20 21 16 18 -7 46 1 46 14 0 4 -18 7
-40 4 -36 -3 -39 -2 -30 15 13 24 13 43 0 35 -6 -4 -8 -10 -5 -15 3 -5 0 -12
-6 -16 -8 -4 -9 -3 -5 5 4 6 1 14 -7 17 -7 2 -14 12 -14 22 0 14 1 15 10 1 9
-15 12 -15 29 0 10 8 18 25 18 36 0 11 5 27 11 35 9 13 10 12 5 -3 -4 -13 0
-17 21 -17 29 0 66 -37 59 -57 -3 -7 -1 -13 5 -13 7 0 10 -17 8 -44 -3 -34 -1
-42 10 -38 10 4 13 1 8 -11 -3 -9 -2 -19 4 -23 5 -3 9 -13 8 -22 -1 -10 3 -28
9 -42 6 -14 19 -54 27 -90 28 -116 107 -385 116 -396 5 -6 7 -13 4 -16 -3 -2
4 -30 14 -61 11 -30 17 -57 15 -60 -7 -6 159 -26 168 -21 5 3 6 10 3 15 -4 5
1 17 10 26 14 13 21 14 35 5 11 -6 20 -7 22 -2 12 34 30 -45 78 -339 56 -340
65 -370 106 -370 10 0 58 -2 107 -6 l87 -5 0 30 c0 49 31 57 85 20 24 -17 47
-35 50 -40 3 -6 28 -10 55 -10 45 0 49 2 52 27 l3 26 32 -27 c17 -14 38 -24
45 -21 8 3 21 -1 28 -10 7 -8 20 -15 29 -15 24 0 45 -38 31 -56 -9 -10 -9 -17
2 -27 19 -20 39 -10 32 17 -3 14 1 27 10 35 12 11 21 8 49 -13 27 -21 36 -23
47 -13 10 10 12 9 7 -5 -5 -13 -1 -18 13 -18 11 0 20 -4 20 -10 0 -5 16 -17
35 -26 32 -15 37 -15 60 0 30 20 39 20 31 1 -8 -21 3 -45 20 -45 8 0 22 -4 32
-10 9 -5 29 -14 45 -20 15 -5 32 -21 37 -34 14 -38 30 -41 30 -7 0 20 7 34 19
41 16 8 23 5 40 -19 12 -16 21 -33 21 -39 0 -5 8 -13 18 -16 38 -14 72 -38 83
-58 11 -21 12 -21 26 5 18 36 46 34 86 -6 17 -18 40 -36 50 -40 9 -3 17 -12
17 -19 0 -8 9 -20 20 -28 11 -8 20 -20 20 -27 0 -7 5 -13 10 -13 6 0 10 13 10
29 0 48 17 46 69 -8 26 -28 53 -51 60 -51 6 0 11 -11 11 -25 0 -14 5 -25 10
-25 13 0 45 -32 54 -55 6 -18 8 -18 24 -1 15 15 15 18 2 26 -8 5 -10 10 -4 10
7 0 15 11 18 25 8 32 24 32 32 0 3 -14 10 -25 15 -25 5 0 7 -6 5 -13 -1 -6 -1
-9 1 -4 11 19 31 3 43 -33 7 -22 19 -40 27 -40 7 0 13 -7 13 -15 0 -8 7 -15
15 -15 8 0 17 -11 21 -25 4 -16 13 -25 25 -25 10 0 19 -7 19 -15 0 -8 5 -15
10 -15 6 0 10 5 10 10 0 6 5 10 10 10 6 0 10 -4 10 -10 0 -5 20 -41 45 -79 25
-38 45 -77 45 -85 0 -9 7 -16 15 -16 8 0 15 -9 15 -20 0 -11 3 -20 8 -20 7 0
25 -30 38 -62 3 -10 13 -18 20 -18 8 0 14 -10 14 -25 0 -14 4 -25 9 -25 18 0
33 71 27 120 -4 29 -2 51 4 55 5 3 10 -1 10 -10 0 -10 6 -15 13 -12 9 3 18 -8
26 -30 14 -37 44 -73 61 -73 6 0 10 -10 10 -22 0 -13 7 -32 15 -42 8 -11 15
-32 15 -48 0 -21 5 -28 20 -28 11 0 20 5 20 11 0 7 9 0 20 -14 11 -14 18 -32
14 -40 -3 -8 2 -17 10 -20 9 -4 16 -14 16 -24 0 -16 -2 -16 -11 -3 -8 12 -10
12 -7 1 8 -29 36 -20 42 13 29 165 62 525 82 906 9 160 8 732 -1 842 -4 43 -5
78 -2 78 9 0 57 -50 57 -60 0 -5 6 -10 14 -10 8 0 20 -16 27 -35 15 -40 43
-47 53 -13 3 13 6 43 7 68 1 43 1 44 10 14 6 -21 19 -34 44 -44 26 -10 35 -20
35 -37 0 -13 6 -23 14 -23 8 0 16 -7 20 -15 3 -8 15 -15 26 -15 14 0 20 -7 20
-23 0 -12 9 -30 20 -40 12 -10 20 -29 20 -47 0 -23 4 -30 20 -30 11 0 20 -4
20 -10 0 -5 9 -10 20 -10 17 0 20 7 22 43 l1 42 7 -45 7 -45 1 43 c1 23 7 42
12 42 6 0 10 9 10 21 0 18 2 19 15 5 19 -19 19 -26 0 -26 -8 0 -15 -9 -15 -19
0 -10 7 -21 15 -25 8 -3 15 -12 15 -21 0 -18 21 -20 38 -3 10 10 15 10 21 -1
19 -30 21 18 11 261 -11 267 -31 527 -55 718 -8 63 -15 118 -15 122 0 14 -20
9 -41 -11 -22 -20 -19 -61 4 -61 6 0 2 -7 -9 -15 -17 -12 -20 -12 -31 1 -6 9
-9 23 -6 32 5 12 2 14 -13 8 -10 -5 -33 -12 -50 -17 -24 -7 -33 -16 -38 -41
-4 -21 -2 -34 6 -40 8 -5 2 -8 -17 -8 -17 0 -35 -4 -40 -9 -6 -5 -21 -12 -34
-16 -20 -6 -23 -4 -18 9 5 13 0 16 -24 16 -18 0 -28 -4 -24 -10 9 -15 -20 -40
-47 -40 -13 0 -30 -5 -38 -10 -13 -8 -12 -10 4 -10 36 0 8 -11 -48 -19 -43 -6
-56 -5 -56 5 0 7 -5 16 -11 20 -8 4 -9 -1 -4 -16 6 -19 5 -21 -13 -11 -11 6
-22 8 -25 5 -2 -3 -10 26 -16 63 -19 114 -53 257 -63 268 -6 6 -7 4 -3 -7 6
-14 1 -16 -32 -11 -56 8 -65 9 -93 16 -14 3 -58 8 -99 11 -40 3 -80 11 -87 17
-8 7 -32 13 -54 14 -37 2 -106 32 -280 120 -45 24 -66 40 -68 55 -2 14 -9 20
-18 16 -8 -3 -13 -2 -9 3 7 12 -45 53 -61 47 -7 -3 -18 8 -24 25 -7 16 -34 50
-62 76 -48 47 -129 159 -158 218 -8 17 -22 42 -32 56 -10 15 -13 30 -8 35 5 5
-3 33 -20 69 -16 33 -30 68 -30 77 0 9 -3 18 -8 20 -4 2 -15 34 -24 73 -13 53
-14 73 -5 84 13 15 18 203 6 195 -12 -7 -20 32 -13 61 5 21 9 24 16 13 6 -8 8
7 5 45 -5 47 -3 59 11 66 12 6 22 34 31 83 7 40 18 81 23 92 7 13 7 21 -1 25
-15 9 0 83 17 89 8 2 10 -6 6 -30 -5 -33 -5 -33 9 -9 18 31 15 40 -26 68 -52
37 -115 96 -88 82 21 -10 23 -9 18 5 -4 9 -2 16 3 16 5 0 7 7 4 15 -4 8 -1 15
5 15 6 0 11 6 11 13 0 19 49 87 62 84 6 -1 13 4 16 12 3 10 0 12 -12 8 -11 -4
-15 -3 -11 4 4 6 13 8 20 5 8 -3 19 2 25 10 10 11 10 14 0 14 -10 0 -10 3 0
15 7 8 16 12 21 9 5 -3 9 -2 9 3 0 4 15 25 34 45 19 21 38 47 41 59 6 17 9 19
17 8 7 -11 11 -11 15 -2 2 7 4 15 3 19 -3 12 52 42 66 37 8 -3 14 0 14 6 0 6
7 8 15 5 8 -4 17 1 21 10 3 9 15 16 25 16 10 0 19 5 19 11 0 12 49 53 65 55
30 3 64 17 62 27 -1 6 21 16 48 22 28 7 60 17 73 23 12 7 31 17 42 22 11 5 33
10 49 10 48 0 43 13 -18 55 -35 24 -56 45 -54 53 3 7 13 10 22 7 9 -2 29 2 44
10 16 8 50 17 77 21 37 5 50 11 54 26 4 17 10 19 33 13 15 -4 78 -9 138 -10
110 -2 272 -12 310 -21 11 -2 14 -1 7 2 -13 6 -7 24 8 24 5 0 18 -9 29 -21 17
-18 22 -19 43 -8 21 11 22 11 9 -4 -12 -15 -11 -16 16 -7 23 9 38 7 74 -9 24
-12 37 -21 29 -21 -12 0 -12 -2 -1 -12 11 -10 14 -10 18 0 3 6 9 12 15 12 6 0
8 -7 5 -15 -9 -21 12 -30 30 -12 14 13 21 11 73 -19 32 -19 61 -34 65 -34 3 0
13 -7 22 -15 19 -20 30 -11 13 10 -10 12 -9 16 5 21 22 9 87 -25 93 -48 2 -10
10 -18 18 -18 17 0 29 20 12 21 -7 0 -2 5 11 10 26 10 39 2 114 -75 34 -35 39
-37 50 -22 13 17 47 13 47 -5 0 -5 6 -9 13 -9 14 0 32 -19 61 -65 11 -17 24
-35 30 -42 6 -7 18 -20 26 -30 14 -16 15 -14 20 30 l5 48 25 -41 c14 -22 28
-40 32 -40 5 0 8 -9 8 -20 0 -11 7 -20 15 -20 9 0 15 -9 15 -25 0 -18 4 -23
15 -19 11 5 15 -1 15 -21 0 -17 5 -25 13 -22 7 2 11 15 9 30 -3 21 0 26 12 21
9 -3 16 -14 16 -24 0 -10 7 -23 15 -30 8 -7 15 -19 15 -27 0 -8 14 -28 30 -45
17 -16 30 -35 30 -41 0 -7 7 -21 15 -31 15 -20 15 -20 30 0 8 10 15 23 15 29
0 5 8 -7 18 -26 20 -39 35 -59 69 -91 20 -19 53 -86 53 -108 0 -6 -7 -10 -15
-10 -8 0 -15 -4 -15 -10 0 -5 8 -10 18 -10 19 0 42 -59 42 -110 0 -16 4 -30 9
-30 5 0 12 -76 16 -170 4 -93 11 -167 16 -164 5 3 9 -6 9 -19 0 -14 6 -24 15
-24 13 0 15 34 16 241 1 133 0 249 -1 259 -1 18 0 18 24 2 28 -19 33 -31 14
-38 -7 -2 -1 -2 15 0 23 4 27 1 27 -20 0 -20 4 -24 20 -20 12 3 22 -1 26 -11
3 -9 11 -16 16 -16 13 0 48 -39 48 -53 0 -5 6 -5 14 2 9 8 12 26 8 61 -3 33
-1 50 7 50 7 0 11 38 11 120 0 160 18 158 23 -3 2 -115 3 -113 5 41 2 157 12
202 27 125 l8 -38 13 32 c9 22 19 31 28 27 12 -5 14 1 10 28 -3 18 -9 60 -14
93 -8 55 -8 53 -3 -22 3 -57 2 -83 -6 -83 -8 0 -11 72 -11 240 l0 240 44 0 45
0 4 -42 c2 -24 4 30 5 120 1 89 6 162 11 162 5 0 12 82 15 183 13 387 18 457
30 457 13 0 36 67 36 105 0 14 -4 25 -10 25 -5 0 -10 7 -10 15 0 18 16 20 23
3 8 -18 27 10 27 40 0 12 9 31 20 42 19 19 21 37 27 266 7 258 4 243 53 301 5
7 10 28 10 48 0 24 4 35 15 35 11 0 15 11 15 40 0 22 5 40 10 40 6 0 10 18 10
40 0 29 4 40 15 40 8 0 15 9 15 19 0 11 4 23 10 26 6 3 10 19 10 36 0 16 -4
29 -10 29 -15 0 -12 19 4 36 17 16 36 19 36 4 0 -15 19 -12 36 4 16 17 19 36
4 36 -5 0 -10 11 -10 25 0 14 5 25 10 25 6 0 10 -11 10 -25 0 -14 4 -25 9 -25
11 0 61 58 61 70 0 4 9 10 21 13 18 5 19 8 8 29 -7 13 -12 30 -11 38 2 10 -2
9 -14 -5 -16 -20 -16 -20 -9 4 5 16 4 21 -4 17 -6 -4 -11 -3 -11 3 0 5 5 13
10 16 6 3 10 1 10 -5 0 -6 4 -9 9 -5 8 4 21 -18 26 -45 1 -3 11 -26 23 -52 12
-26 22 -52 22 -58 0 -6 7 -21 14 -33 52 -78 184 -606 202 -802 3 -33 7 -70 9
-82 20 -92 26 -668 11 -905 -4 -57 -9 -166 -12 -243 -10 -289 -45 -902 -54
-940 -17 -75 -154 -495 -180 -550 -6 -11 -25 -63 -44 -115 -42 -118 -108 -297
-136 -370 -11 -30 -29 -77 -40 -105 -42 -114 -71 -188 -125 -325 -232 -588
-353 -928 -400 -1121 -58 -235 -41 -438 57 -679 37 -92 56 -123 70 -114 11 7
28 -13 28 -34 0 -7 -5 -10 -12 -6 -7 4 -8 3 -4 -5 4 -6 12 -9 17 -6 5 4 9 -1
9 -9 0 -29 1 -31 23 -43 12 -7 17 -12 10 -13 -7 0 -10 -7 -6 -16 3 -8 11 -13
18 -10 8 3 12 -2 10 -12 -2 -17 25 -56 92 -127 21 -23 31 -33 23 -22 -12 15
-12 20 -1 26 11 7 9 11 -5 20 -18 10 -18 10 -1 11 10 0 15 5 12 10 -4 6 -9 8
-13 6 -4 -2 -8 28 -9 68 -1 64 0 69 13 52 8 -11 14 -29 14 -40 0 -12 7 -30 15
-40 8 -11 13 -27 10 -36 -3 -9 4 -27 15 -40 12 -14 18 -31 14 -42 -3 -11 0
-20 10 -24 9 -3 16 -17 16 -31 0 -16 -4 -22 -12 -17 -7 4 -8 3 -4 -5 4 -6 11
-9 16 -6 5 3 11 -3 14 -13 3 -10 28 -40 56 -67 49 -49 50 -49 50 -22 0 17 -4
26 -10 22 -6 -4 -7 -11 -4 -17 4 -7 2 -8 -5 -4 -8 5 -9 12 -2 19 14 19 23 157
13 210 -5 26 -6 50 -1 52 16 10 22 -43 21 -176 0 -111 2 -136 14 -136 8 0 14
6 14 14 0 7 -5 13 -11 13 -5 0 -7 5 -3 11 4 7 9 174 12 373 2 199 8 362 13
364 5 2 9 10 9 19 0 17 22 13 28 -5 2 -7 -3 -12 -12 -12 -12 0 -16 -10 -16
-40 0 -37 2 -40 29 -40 24 0 30 -5 36 -33 14 -68 17 -127 6 -127 -6 0 -11 -18
-11 -40 l0 -40 40 0 40 0 0 -40 c0 -22 5 -40 10 -40 6 0 10 -18 10 -40 0 -24
-5 -40 -12 -40 -6 0 7 -17 30 -38 39 -36 55 -72 32 -72 -5 0 -10 -11 -10 -25
0 -14 5 -25 10 -25 6 0 10 -16 10 -35 0 -20 7 -46 15 -59 8 -12 18 -50 21 -84
5 -45 11 -62 21 -62 12 0 14 -11 11 -50 -2 -32 1 -50 8 -50 6 0 17 -7 24 -15
7 -8 22 -15 33 -15 19 0 19 -1 3 -19 -18 -20 -6 -39 16 -25 6 4 8 3 4 -4 -3
-6 -2 -13 4 -17 7 -4 8 13 4 52 -4 32 -11 60 -16 61 -4 2 -8 21 -8 43 0 21 -4
39 -10 39 -6 0 -10 55 -11 143 0 195 -13 358 -30 386 -11 18 -11 25 -1 28 7 3
12 22 12 45 0 35 2 39 15 28 8 -7 19 -27 23 -44 5 -18 16 -32 26 -34 13 -3 16
0 11 9 -5 8 -4 10 3 5 18 -11 14 -26 -5 -26 -15 0 -14 -2 3 -15 17 -13 17 -14
2 -15 -15 0 -15 -5 5 -52 12 -29 25 -55 29 -56 4 -2 8 -21 8 -43 0 -29 4 -39
16 -39 8 0 13 4 10 9 -4 5 0 12 6 15 10 5 10 7 1 12 -7 3 -10 11 -7 19 3 7 1
16 -5 20 -6 3 -11 14 -10 23 0 14 2 13 9 -3 l9 -20 1 20 c1 18 2 18 11 -3 5
-13 6 -28 3 -34 -4 -6 -2 -13 4 -17 6 -3 12 -24 14 -46 2 -22 6 -43 11 -46 9
-6 40 -118 39 -139 0 -8 -3 -28 -6 -45 -5 -25 -4 -26 2 -5 5 17 10 21 16 12 4
-6 4 -12 0 -12 -3 0 -1 -6 5 -14 16 -18 4 -46 -17 -39 -13 3 -14 2 -4 -4 7 -5
10 -17 6 -26 -10 -27 4 -20 21 11 15 26 15 26 8 2 -8 -27 -7 -46 3 -122 3 -27
10 -48 15 -48 5 0 9 -18 9 -40 0 -22 4 -40 9 -40 6 0 8 8 7 17 -2 10 -7 38
-10 63 -4 25 -14 62 -23 83 -13 29 -14 42 -4 60 11 21 11 21 8 -5 -2 -15 -1
-26 3 -23 5 3 32 -78 36 -110 0 -5 3 -17 7 -25 16 -44 39 -128 41 -150 2 -21
17 -33 92 -71 49 -25 93 -44 98 -41 5 3 6 0 2 -6 -4 -7 -2 -12 3 -12 6 0 11
-11 11 -25 0 -30 16 -33 23 -5 3 13 1 18 -6 14 -9 -5 -9 -4 -1 5 7 8 26 5 72
-14 34 -14 66 -25 72 -25 7 0 10 4086 10 12735 l0 12736 -32495 -3 c-17872 -2
-32495 -5 -32495 -8z m48446 -1559 c73 -33 134 -126 134 -206 0 -74 -57 -167
-122 -201 -75 -39 -190 -25 -256 32 -118 100 -90 303 50 373 54 27 138 28 194
2z m-42880 -326 c40 -26 64 -74 64 -128 0 -42 -5 -53 -39 -90 -38 -40 -42 -42
-98 -41 -96 0 -143 47 -143 143 0 39 6 56 27 82 50 59 129 73 189 34z m12119
0 c38 -37 35 -95 -6 -129 -35 -30 -58 -32 -98 -11 -34 17 -55 62 -45 99 15 63
103 88 149 41z m36415 -66 c787 -62 1579 -334 2233 -767 287 -189 514 -377
774 -640 l183 -183 35 38 c28 30 35 34 35 19 0 -11 3 -17 6 -13 7 7 44 -28 68
-66 18 -26 18 -27 -13 -66 l-32 -40 29 -33 c59 -67 245 -325 317 -438 199
-314 339 -603 469 -963 162 -449 254 -935 272 -1438 8 -206 4 -223 -48 -234
-18 -4 -36 -13 -40 -19 -19 -29 -29 23 -38 185 -6 96 -12 190 -15 209 -3 19
-7 49 -9 65 -35 272 -134 765 -154 765 -24 0 -82 -23 -77 -30 3 -5 0 -12 -7
-16 -7 -4 -10 -4 -6 1 4 4 3 14 -2 21 -6 6 -15 54 -21 105 -6 57 -26 142 -50
216 -39 118 -45 131 -168 312 -16 23 -26 57 -31 98 -9 95 -52 142 -153 169
-44 11 -67 12 -95 4 -20 -5 -52 -10 -71 -10 -30 0 -32 2 -20 17 20 23 86 50
144 58 50 7 95 36 95 61 0 8 -20 36 -45 64 -24 27 -49 59 -55 70 -6 11 -24 27
-41 36 -17 8 -73 59 -124 112 -51 53 -118 112 -149 131 -64 38 -183 84 -197
76 -9 -6 -126 -154 -144 -183 -5 -9 -17 -22 -25 -29 -8 -7 -11 -13 -6 -13 5 0
2 -8 -5 -17 -9 -11 -10 -14 -2 -9 9 5 11 2 7 -9 -5 -12 -9 -13 -20 -4 -12 10
-13 8 -8 -6 5 -11 3 -16 -2 -12 -5 3 -11 -10 -12 -29 -1 -19 -2 -41 -3 -49 -2
-9 -23 -19 -56 -26 -29 -7 -53 -15 -53 -18 0 -3 -10 -17 -23 -31 -12 -14 -38
-45 -57 -70 -19 -25 -40 -52 -47 -60 -7 -8 -51 -64 -99 -125 -48 -60 -99 -126
-115 -145 -81 -101 -277 -356 -468 -610 -157 -209 -210 -286 -198 -288 23 -5
21 -18 -3 -39 -21 -19 -28 -39 -8 -27 7 4 8 3 4 -5 -4 -6 -12 -9 -17 -6 -5 4
-17 1 -26 -4 -10 -6 -14 -11 -10 -11 13 0 -20 -30 -34 -30 -8 0 -8 -5 2 -17
12 -14 12 -16 0 -8 -11 6 -13 4 -8 -8 3 -10 2 -17 -3 -17 -6 0 -10 5 -10 10 0
6 -4 10 -9 10 -4 0 -7 -11 -6 -24 3 -19 -1 -23 -19 -19 -17 4 -18 3 -6 -6 13
-9 13 -11 -1 -11 -8 0 -25 -13 -37 -30 l-22 -30 22 3 c17 1 24 -4 26 -20 3
-20 -1 -23 -26 -23 -17 0 -32 4 -34 10 -6 18 -220 -299 -231 -343 -11 -45 -33
-77 -53 -77 -7 0 -19 -7 -28 -15 -13 -14 -13 -19 9 -52 55 -80 9 -164 -80
-147 -20 3 -38 11 -41 16 -3 5 -25 -19 -49 -54 -31 -46 -40 -67 -34 -80 5 -9
9 -37 9 -62 0 -35 -5 -49 -23 -63 -13 -10 -30 -35 -36 -56 -28 -82 -91 -128
-176 -128 -64 0 -115 22 -152 65 -14 17 -32 30 -38 28 -7 -1 -25 2 -39 8 -31
11 -35 45 -7 53 25 6 53 61 53 103 0 22 5 34 14 34 7 0 17 8 23 17 5 10 31 30
58 44 41 22 63 48 149 172 55 80 100 154 99 164 0 10 -14 44 -29 75 -30 61
-30 115 -1 154 11 16 17 16 39 6 15 -7 26 -8 26 -2 0 6 9 10 20 10 22 0 25
-12 11 -39 -10 -18 15 -84 30 -79 17 6 248 341 242 351 -3 5 -1 7 5 3 6 -3 13
2 17 13 3 10 14 26 25 36 11 10 20 29 20 43 0 16 4 22 14 19 9 -4 12 2 10 19
-2 20 0 23 11 14 11 -9 12 -7 8 9 -4 14 -1 21 10 21 8 0 17 7 21 15 3 8 1 15
-4 15 -6 0 -10 11 -10 25 0 15 6 25 14 25 8 0 22 10 30 21 8 12 25 27 38 33
13 6 23 21 23 31 1 11 4 26 9 33 6 10 11 9 22 -5 12 -16 13 -14 14 20 0 66 38
117 88 117 11 0 32 16 46 35 15 19 22 35 17 35 -6 0 -11 11 -11 24 0 13 -10
35 -21 50 -26 33 -22 38 19 30 24 -5 32 -13 38 -36 6 -29 7 -30 24 -12 9 11
97 124 195 253 197 260 184 227 133 325 l-20 39 23 -6 c13 -4 29 -7 36 -7 7 0
18 -18 24 -39 l12 -40 91 117 c153 197 230 293 254 321 55 61 75 100 74 146
-1 25 3 45 9 45 6 0 7 5 4 10 -6 9 7 14 27 11 4 0 5 6 2 14 -7 18 -24 20 -24
3 0 -6 -3 -8 -6 -5 -8 8 14 37 28 37 5 0 13 -10 18 -22 l9 -23 0 23 c1 13 5
20 11 17 6 -4 7 -12 3 -18 -4 -7 0 -6 10 2 9 7 17 21 17 30 0 25 21 43 35 31
9 -7 23 3 49 35 21 25 33 45 28 45 -6 0 -12 -3 -15 -7 -2 -5 -3 -3 -1 3 1 6
-2 16 -7 21 -5 5 -1 9 10 9 11 0 17 -4 14 -9 -3 -5 0 -8 8 -5 8 3 16 15 17 27
2 15 0 21 -7 17 -6 -4 -11 -2 -11 3 0 10 6 12 28 10 4 0 5 -8 4 -17 -3 -14 -1
-15 10 -4 11 11 10 18 -5 43 -24 42 -22 60 13 104 17 21 33 49 37 63 7 31 -19
119 -60 196 -53 100 -160 156 -337 176 -47 5 -116 14 -155 20 -38 5 -159 9
-267 10 -207 0 -233 6 -189 42 13 10 41 23 63 30 47 14 56 28 64 104 3 33 13
69 20 81 19 31 18 50 -11 112 -18 38 -29 51 -40 47 -8 -3 -52 -17 -97 -31 -46
-13 -119 -46 -163 -71 -44 -26 -124 -71 -177 -100 -155 -84 -209 -126 -363
-279 -124 -123 -148 -153 -166 -201 -15 -38 -44 -81 -97 -140 -106 -118 -143
-176 -181 -283 -38 -110 -59 -144 -161 -271 -68 -84 -210 -230 -223 -230 -2 0
8 26 24 58 16 31 48 100 73 153 49 108 90 168 194 282 44 48 77 95 88 125 27
73 118 194 238 316 60 61 133 141 162 178 28 37 105 117 169 179 91 86 133
118 184 141 154 70 201 95 310 169 155 105 154 104 146 128 -7 23 -63 43 -184
66 -107 19 -177 57 -280 151 -91 83 -143 119 -204 140 -61 22 -256 54 -334 55
-37 1 -81 4 -98 8 -32 7 -34 15 -20 85 6 31 5 37 -5 31 -9 -5 -11 -4 -6 4 4 6
11 9 16 6 4 -3 11 3 14 12 4 10 4 14 0 10 -4 -4 -12 -3 -18 2 -15 13 -234 65
-396 95 -280 52 -499 75 -778 83 l-224 6 7 44 c5 34 3 44 -9 49 -16 6 -12 24
5 24 6 0 7 -5 3 -11 -4 -7 -1 -10 7 -7 8 3 14 11 14 19 0 10 19 16 65 20 80 8
392 2 560 -12z m360 -626 c39 -7 50 -18 50 -51 0 -48 -141 -82 -195 -46 -60
39 5 122 85 108 14 -2 41 -7 60 -11z m-47737 -241 c281 -138 283 -522 5 -673
-60 -33 -67 -34 -168 -34 -99 0 -110 2 -172 33 -141 69 -216 209 -202 379 11
137 115 266 255 317 31 11 69 15 130 13 74 -3 96 -8 152 -35z m36397 -52 c45
-45 11 -120 -55 -120 -44 0 -75 29 -75 70 0 41 31 70 75 70 22 0 43 -8 55 -20z
m9506 -155 c53 -80 0 -209 -72 -176 -21 9 -24 18 -24 61 0 28 -5 58 -11 68 -9
15 -8 24 6 45 24 37 77 38 101 2z m1307 -41 c28 -15 68 -37 87 -49 57 -36 277
-104 466 -144 142 -29 270 -64 289 -78 16 -12 55 -65 55 -74 0 -17 -18 -9 -22
9 -9 34 -98 71 -185 76 -43 2 -91 9 -107 16 -18 6 -61 8 -115 4 -80 -6 -91 -4
-166 25 -44 17 -101 42 -126 56 -26 14 -79 29 -120 35 -41 6 -82 13 -93 16
-37 12 -128 7 -136 -6 -5 -8 -14 -43 -20 -79 -14 -81 -50 -224 -80 -311 -26
-79 -70 -248 -70 -271 0 -9 -20 -56 -45 -105 -25 -48 -45 -84 -45 -78 1 20 49
192 69 246 14 38 24 101 32 200 6 78 17 177 25 218 8 41 14 93 14 116 0 42 25
129 44 153 20 26 90 51 144 51 37 0 68 -8 105 -26z m6607 -434 c44 -44 9 -130
-54 -130 -66 0 -100 78 -54 127 27 29 80 31 108 3z m-32677 -130 c49 -39 42
-116 -14 -145 -40 -21 -63 -19 -98 11 -87 73 22 205 112 134z m6561 -264 c85
-24 168 -59 232 -97 82 -50 180 -133 197 -169 10 -19 11 -28 4 -23 -8 5 -8 2
0 -9 7 -8 10 -18 6 -21 -3 -4 -21 11 -40 32 -86 101 -264 209 -413 251 -44 12
-122 24 -190 27 -63 4 -107 9 -97 11 9 2 15 8 12 13 -10 15 224 3 289 -15z
m7767 -105 c41 -41 40 -90 -2 -125 -41 -35 -83 -34 -120 3 -20 20 -29 39 -29
61 0 43 47 90 90 90 22 0 41 -9 61 -29z m-26116 -346 c1096 -32 2318 -283
3385 -694 580 -224 1219 -538 1725 -849 974 -597 1853 -1355 2596 -2237 555
-660 1034 -1397 1414 -2178 99 -203 265 -573 265 -591 0 -3 9 -25 19 -49 41
-89 156 -402 231 -627 300 -897 468 -1773 531 -2775 16 -246 16 -946 0 -1190
-18 -284 -49 -608 -77 -805 -14 -96 -25 -181 -26 -187 -1 -8 -11 -11 -25 -9
-16 3 -23 0 -23 -11 0 -13 2 -14 17 -2 14 12 16 12 8 0 -6 -11 -4 -13 9 -8 11
4 15 3 11 -4 -4 -6 -13 -8 -21 -5 -8 3 -14 1 -14 -5 0 -6 -7 -9 -15 -5 -8 3
-15 1 -15 -4 0 -6 -11 -10 -24 -10 -13 0 -40 -7 -61 -16 -20 -8 -39 -13 -42
-10 -10 10 116 54 139 48 4 -1 5 5 1 13 -5 14 -8 14 -29 0 -13 -8 -29 -15 -36
-15 -28 0 -88 -21 -103 -36 -14 -14 -15 -12 -10 18 13 89 46 414 60 588 42
537 42 1186 0 1650 -3 30 -7 78 -9 105 -3 28 -7 70 -10 95 -3 25 -17 144 -32
265 -125 1071 -426 2131 -896 3157 -50 109 -94 195 -99 192 -5 -3 -6 2 -3 10
3 9 1 16 -6 16 -6 0 -9 4 -6 9 3 5 -3 11 -14 14 -11 3 -18 1 -14 -4 3 -5 -6
-13 -20 -19 -14 -5 -26 -16 -26 -24 0 -7 -9 -16 -20 -19 -14 -4 -20 -14 -20
-32 0 -23 -3 -27 -24 -23 -17 4 -23 1 -19 -9 3 -8 -2 -13 -14 -13 -10 0 -23
-10 -28 -22 -6 -13 -25 -30 -43 -40 -46 -22 -47 -25 -5 -20 27 3 34 1 31 -9
-3 -10 -18 -13 -45 -11 -26 2 -53 -4 -75 -16 l-34 -19 -23 41 c-30 51 -59 89
-186 241 -182 219 -227 296 -270 464 -14 58 -35 131 -47 164 -29 85 -22 165
22 234 32 52 33 54 22 109 -14 67 -84 233 -155 367 -60 113 -210 315 -215 289
-8 -48 -14 -61 -36 -85 -14 -15 -34 -27 -46 -27 -30 0 -60 35 -60 71 0 39 48
89 85 89 l26 0 -20 28 c-39 54 -142 152 -153 146 -7 -5 -9 -2 -6 7 3 8 -4 27
-17 43 l-22 28 1 -34 c1 -18 5 -39 10 -46 4 -6 2 -12 -3 -12 -6 0 -11 5 -11
10 0 19 -21 10 -52 -20 -24 -24 -33 -28 -44 -19 -8 6 -14 8 -14 4 0 -4 -7 -2
-15 5 -12 10 -13 16 -4 26 6 8 7 14 3 14 -17 0 -31 -35 -28 -70 2 -19 5 -46 6
-60 4 -54 -2 -110 -14 -110 -6 0 -28 -18 -49 -40 -21 -22 -45 -40 -54 -40 -9
0 -13 -5 -10 -10 4 -6 13 -7 23 -1 9 4 23 6 30 4 6 -3 12 1 12 9 0 8 4 7 11
-5 6 -9 14 -15 18 -13 4 3 15 -9 25 -25 16 -26 16 -36 6 -82 -14 -56 -43 -121
-68 -149 -23 -27 -83 -24 -111 6 -43 46 -49 121 -15 188 16 31 17 44 2 40 -6
-1 -19 0 -30 4 -16 5 -18 8 -7 15 8 5 9 9 3 9 -5 0 -15 -5 -22 -12 -9 -9 -13
-7 -18 6 -4 10 -9 13 -13 7 -20 -31 -258 84 -321 156 -45 50 -80 134 -80 188
0 25 5 76 12 114 11 66 11 73 -12 121 -39 83 -167 170 -378 254 -72 29 -129
46 -156 46 -55 0 -144 24 -206 55 -27 14 -101 67 -164 120 -101 82 -117 92
-126 77 -8 -15 -11 -15 -20 -2 -6 8 -9 25 -7 38 3 18 -9 32 -62 71 -37 27 -75
49 -86 48 -12 -1 -21 6 -24 20 -6 20 -181 193 -196 193 -9 0 -34 31 -35 43 0
4 8 4 17 -2 14 -7 21 -3 34 17 9 15 42 43 74 62 64 38 109 47 285 56 122 7
270 -19 355 -61 74 -37 409 -321 442 -376 14 -23 26 -27 131 -41 65 -9 166
-32 227 -51 l110 -36 -107 104 c-199 192 -343 279 -633 384 -77 28 -189 77
-250 108 l-110 58 -370 0 c-468 1 -523 11 -723 133 -46 28 -125 65 -177 82
-104 35 -154 67 -233 149 -76 80 -117 168 -117 251 0 59 6 77 67 205 71 150
93 229 97 341 5 154 -39 222 -197 302 -116 59 -169 77 -409 137 -214 53 -361
82 -458 90 -101 8 -393 35 -440 41 -134 16 -259 58 -364 122 -127 77 -212 93
-496 97 -129 1 -232 8 -290 18 -49 9 -144 18 -210 21 -129 5 -150 7 -162 21
-4 4 -2 5 5 1 10 -6 13 4 11 43 -2 29 3 57 9 63 9 9 12 7 12 -10 0 -12 5 -22
10 -22 6 0 10 17 10 39 0 26 7 46 23 62 39 43 57 77 57 109 0 16 -4 30 -10 30
-5 0 -10 6 -10 14 0 8 8 13 18 12 14 -1 17 7 17 42 0 41 -14 69 -23 44 -3 -9
-7 -8 -17 2 -26 25 -588 108 -990 146 -319 29 -303 28 -641 42 -237 9 -391 9
-640 1 -230 -8 -332 -8 -339 -1 -7 8 -5 9 5 6 11 -4 15 2 17 20 0 13 7 28 13
32 7 4 9 13 5 19 -4 7 -1 18 5 26 7 9 10 31 6 57 -6 42 -6 43 8 14 13 -28 14
-29 24 -9 6 11 8 23 5 27 -3 3 -2 7 3 7 5 1 18 3 29 4 11 2 119 8 240 14 347
19 506 19 980 6z m36163 -319 c1 -2 4 -16 5 -32 3 -36 -35 -56 -116 -62 -45
-4 -62 -1 -77 13 -25 23 -25 36 2 70 21 27 23 27 102 21 44 -4 82 -8 84 -10z
m5031 -404 c88 -60 143 -193 112 -276 -16 -41 -85 -73 -173 -80 -49 -3 -87 -2
-102 5 -35 16 -50 59 -41 116 14 92 108 263 144 263 10 0 37 -13 60 -28z
m-31059 -169 c-34 -23 -49 -44 -50 -68 0 -23 49 -153 93 -243 55 -113 164
-189 256 -180 52 5 148 46 178 74 45 45 56 48 28 8 -64 -88 -130 -124 -227
-124 -49 0 -77 7 -123 29 -113 54 -170 141 -184 279 -5 46 -18 96 -31 124 -26
53 -22 65 35 100 38 23 58 24 25 1z m-12552 -71 c19 -13 -39 -67 -153 -140
-55 -36 -138 -93 -185 -127 -47 -34 -107 -74 -135 -90 -27 -15 -113 -69 -190
-120 -77 -51 -162 -105 -190 -121 l-50 -28 37 42 c51 57 97 152 106 217 l7 54
154 100 c179 116 292 174 393 201 75 19 183 26 206 12z m5301 -566 c70 -14
152 -27 183 -30 123 -13 245 -84 231 -135 -3 -12 -17 -30 -31 -41 -42 -33 -98
-43 -222 -37 -95 4 -130 10 -205 37 -49 17 -126 44 -170 59 -141 49 -215 96
-215 136 0 6 28 17 63 24 34 7 67 15 72 17 21 8 174 -8 294 -30z m35419 4 c49
-35 82 -85 106 -158 43 -129 -30 -202 -199 -202 -78 0 -85 2 -104 26 -41 52
-21 148 59 287 51 90 70 96 138 47z m-41973 -241 c-177 -88 -225 -102 -437
-134 -224 -33 -288 -49 -613 -156 -433 -143 -596 -180 -800 -183 -88 -1 -127
3 -145 13 l-25 15 35 9 c19 6 90 27 157 48 93 29 158 42 269 54 337 35 512 72
703 149 75 31 192 72 261 91 69 20 156 47 193 61 49 17 90 24 145 24 56 1 117
11 222 39 80 21 152 38 160 39 8 0 -48 -31 -125 -69z m25364 -84 c30 -15 61
-69 61 -104 0 -65 -62 -131 -123 -131 -78 0 -127 52 -127 136 0 39 5 51 34 80
29 29 41 34 80 34 26 0 60 -7 75 -15z m16802 -415 c22 -12 49 -61 49 -89 0
-58 -51 -99 -109 -86 -65 14 -90 89 -51 153 16 26 26 32 56 32 19 0 44 -5 55
-10z m-43519 -109 c104 -9 141 -24 160 -66 19 -42 1 -90 -60 -158 -31 -35 -78
-89 -104 -119 -50 -59 -223 -195 -292 -230 -23 -11 -59 -33 -81 -48 -22 -15
-73 -44 -112 -65 -89 -46 -117 -43 -132 13 -28 98 1 238 81 401 29 58 53 109
54 114 1 4 2 11 3 16 3 27 98 99 168 129 85 35 64 34 315 13z m18278 -311 c12
-12 20 -33 20 -55 0 -47 -29 -75 -77 -75 -51 0 -73 23 -73 76 0 33 5 46 22 58
31 22 84 20 108 -4z m25297 -242 c33 -26 21 -227 -15 -255 -20 -15 -76 -17
-102 -3 -34 18 -63 78 -64 135 0 43 5 59 27 89 39 50 112 66 154 34z m-16945
-105 c23 -20 24 -80 1 -105 -20 -23 -80 -24 -105 -1 -23 20 -24 80 -1 105 20
23 80 24 105 1z m-19705 -27 c100 -47 168 -141 199 -273 12 -51 15 -109 12
-233 -3 -144 -6 -170 -24 -205 -25 -49 -69 -80 -124 -89 -161 -26 -255 123
-295 469 -22 186 -21 191 25 260 22 33 40 65 40 72 0 31 99 30 167 -1z m9773
-266 c26 -14 43 -71 31 -103 -21 -55 -87 -73 -133 -37 -42 33 -42 106 -1 138
20 14 77 16 103 2z m-6212 -315 c7 -15 20 -25 32 -25 98 0 237 -237 180 -305
-28 -33 -71 -48 -127 -42 -61 6 -165 51 -204 88 -33 30 -69 100 -69 132 0 39
60 124 93 131 16 3 26 10 22 16 -10 17 5 30 34 30 20 0 31 -7 39 -25z m-3590
-468 c7 -15 18 -78 24 -139 10 -103 9 -122 -11 -221 -18 -91 -34 -133 -104
-275 -71 -146 -90 -176 -148 -234 -49 -50 -73 -68 -93 -68 -16 0 -26 6 -27 15
-1 8 -2 21 -3 28 -2 14 4 38 37 133 14 38 30 106 37 149 15 97 43 179 125 355
34 74 77 170 95 213 18 43 37 76 44 74 6 -2 17 -15 24 -30z m2657 -242 c42
-41 26 -112 -36 -156 -25 -18 -39 -21 -80 -16 -127 15 -165 108 -65 159 89 45
145 50 181 13z m-247 -170 c40 -47 24 -109 -38 -144 -33 -18 -54 -21 -171 -21
-189 0 -290 -14 -403 -55 -53 -19 -109 -35 -124 -35 -28 0 -92 34 -92 48 0 5
44 55 98 111 113 120 121 123 268 109 80 -8 124 -6 234 9 152 21 194 17 228
-22z m3200 -451 c27 -19 67 -95 82 -155 18 -77 -30 -182 -63 -138 -7 9 -29 21
-49 28 -20 7 -50 27 -66 45 -25 29 -30 31 -39 17 -16 -23 -38 1 -38 42 -1 18
-5 43 -9 56 -7 22 -6 23 17 17 21 -5 27 -1 37 23 17 42 59 77 95 80 6 1 21 -6
33 -15z m-827 -361 c12 -32 5 -67 -21 -104 -26 -36 -54 -42 -85 -17 -46 36
-25 106 39 134 45 19 55 17 67 -13z m-1356 -63 c24 -27 14 -96 -26 -178 -46
-95 -106 -107 -157 -32 -44 65 -14 194 52 220 41 17 112 11 131 -10z m1998
-257 c18 -63 -49 -146 -97 -121 -29 15 -36 28 -36 64 0 33 28 66 70 83 38 15
53 9 63 -26z m36495 -249 c30 -34 29 -85 -2 -121 -52 -61 -156 -21 -156 60 0
87 101 126 158 61z m-20803 -818 c91 -38 66 -166 -33 -166 -45 0 -78 29 -88
76 -8 40 34 92 84 103 1 1 18 -5 37 -13z m-7280 -300 c93 -43 165 -153 165
-251 0 -63 -30 -136 -76 -185 -58 -62 -110 -86 -191 -89 -123 -4 -210 46 -260
146 -36 74 -39 185 -6 248 71 134 236 193 368 131z m-14200 -162 c27 -11 55
-79 55 -134 0 -103 -74 -256 -145 -300 -21 -13 -59 -25 -85 -28 -41 -4 -51 -1
-82 27 -43 38 -52 77 -35 146 11 43 17 50 40 53 21 3 35 19 73 87 81 145 115
173 179 149z m28889 -875 c39 -31 49 -63 32 -104 -25 -59 -93 -74 -142 -31
-41 35 -39 89 4 127 38 34 70 37 106 8z m12292 -214 c51 -35 55 -122 8 -166
-19 -18 -37 -24 -71 -24 -38 0 -49 5 -75 34 -27 30 -30 39 -25 80 7 60 41 91
100 91 24 0 52 -7 63 -15z m2197 -330 c100 -26 178 -91 221 -184 32 -71 29
-198 -5 -272 -33 -69 -89 -127 -155 -160 -42 -21 -63 -24 -149 -24 -93 0 -104
2 -155 31 -187 105 -228 360 -83 516 88 93 201 126 326 93z m-19371 -42 c39
-37 38 -84 -1 -124 -20 -20 -39 -29 -61 -29 -40 0 -90 47 -90 85 0 31 24 81
42 88 36 15 83 6 110 -20z m-25021 -509 c67 -34 88 -152 43 -242 -35 -71 -92
-117 -229 -186 -134 -67 -190 -79 -219 -47 -41 45 -39 171 3 250 11 20 29 56
41 81 27 58 84 117 135 141 52 24 182 26 226 3z m234 -19 c19 -18 25 -35 25
-70 0 -97 -93 -184 -136 -127 -15 19 -19 88 -5 96 5 3 12 23 16 43 14 81 54
104 100 58z m-194 -534 c22 -18 23 -21 9 -47 -9 -16 -34 -36 -65 -49 -50 -23
-50 -23 -87 -4 -21 11 -38 23 -38 27 0 20 37 56 74 73 52 24 78 24 107 0z
m41997 -35 c35 -7 50 -17 82 -57 45 -57 53 -87 42 -149 -7 -44 -9 -45 -51 -51
-23 -3 -46 -11 -50 -17 -9 -14 -89 -17 -121 -4 -14 5 -32 17 -39 25 -7 9 -26
19 -42 22 -17 4 -30 13 -30 23 -4 43 4 108 15 121 9 12 8 13 -4 7 -8 -4 4 11
28 34 23 22 47 38 52 35 6 -3 10 -2 10 4 0 18 34 20 108 7z m-42269 -122 c32
-40 36 -115 11 -223 -13 -59 -24 -159 -30 -265 -5 -94 -11 -178 -14 -186 -3
-8 -10 -51 -15 -95 -15 -120 -43 -193 -90 -237 -47 -45 -60 -46 -99 -13 -47
40 -104 220 -109 350 -4 88 -1 115 26 223 48 186 162 403 237 448 49 30 58 30
83 -2z m1956 -234 c127 -25 227 -55 278 -83 38 -21 48 -37 23 -37 -24 0 -29
-19 -12 -44 27 -42 56 -144 56 -198 -1 -87 -52 -171 -123 -197 -39 -15 -116
-14 -195 4 -37 8 -108 19 -158 24 -50 5 -123 22 -165 36 -41 15 -119 38 -174
52 -79 19 -159 52 -193 78 -4 3 50 147 77 206 15 34 35 56 69 77 156 101 301
123 517 82z m502 -103 c95 -100 114 -175 58 -227 -38 -35 -65 -22 -110 56 -21
36 -58 88 -82 114 l-44 49 44 19 c25 11 48 25 51 31 13 21 33 11 83 -42z
m40933 -250 c14 -2 33 -7 43 -11 9 -5 29 -6 42 -3 14 2 28 0 31 -5 3 -4 9 -6
14 -3 5 3 19 1 31 -6 17 -9 20 -8 13 3 -6 9 0 8 17 -3 14 -10 38 -15 57 -13
17 2 34 -1 37 -6 4 -6 11 -8 16 -4 5 3 15 1 22 -4 7 -6 26 -12 43 -15 71 -11
253 -73 265 -91 4 -4 11 -6 17 -2 5 3 25 -5 44 -18 33 -22 84 -41 101 -38 4 1
7 -3 7 -8 0 -6 6 -10 14 -10 8 0 16 -5 18 -10 2 -6 14 -12 27 -15 13 -2 38
-16 56 -30 19 -14 39 -25 45 -25 7 0 30 -14 51 -31 21 -17 39 -27 39 -23 0 4
8 -1 19 -12 10 -10 29 -26 42 -34 13 -8 53 -43 90 -78 49 -46 71 -61 85 -56
14 4 15 3 5 -4 -15 -11 2 -27 19 -17 6 4 10 -5 10 -20 0 -16 4 -24 11 -20 12
8 49 -22 49 -40 0 -6 10 -22 23 -35 12 -13 27 -38 32 -55 6 -16 16 -29 23 -27
7 1 12 -7 12 -18 0 -28 32 -89 38 -72 7 21 32 -6 32 -34 0 -14 4 -32 9 -42 16
-30 31 -115 33 -190 l3 -73 55 7 c30 3 74 10 98 14 25 4 42 4 42 -2 0 -15
-271 -141 -413 -192 -110 -40 -371 -119 -431 -130 -12 -2 -28 -7 -36 -10 -8
-3 -78 -17 -155 -31 -567 -104 -1243 -98 -1810 17 -312 63 -705 175 -870 249
-28 12 -53 22 -57 21 -5 -1 -8 2 -8 8 0 6 -6 9 -12 8 -7 -2 -12 5 -10 15 2 9
-3 17 -11 17 -8 0 -17 7 -21 15 -4 11 -1 13 12 5 18 -9 103 -47 137 -61 40
-16 96 -31 100 -27 3 2 -1 22 -7 44 -6 21 -11 43 -9 48 1 4 -5 13 -14 20 -13
10 -13 14 1 41 8 16 12 26 8 22 -12 -12 -36 47 -30 76 3 15 2 27 -3 27 -7 0
-8 23 -2 94 1 14 4 16 15 7 11 -9 13 -5 10 26 -2 21 -6 52 -10 69 -5 25 0 37
20 59 14 15 31 45 38 67 6 21 15 38 20 38 4 0 8 7 8 15 0 8 5 15 10 15 6 0 10
13 10 29 0 22 6 30 25 35 15 4 42 30 68 64 51 70 102 117 140 126 15 3 27 13
27 21 0 8 3 15 8 15 4 0 30 20 57 45 29 26 57 43 67 41 9 -2 25 5 34 15 9 10
21 19 26 19 5 0 32 17 61 38 29 21 76 44 107 51 30 8 75 24 100 36 48 24 133
47 190 51 19 1 35 3 35 4 0 3 64 8 205 15 79 3 147 9 150 12 5 5 390 -4 440
-10z m-47223 -92 c48 -9 111 -22 139 -30 28 -8 59 -16 70 -18 10 -2 33 -10 49
-16 17 -7 35 -14 40 -15 6 -1 45 -19 88 -39 179 -84 346 -204 481 -348 75 -80
79 -83 119 -81 37 2 45 -2 70 -33 15 -19 25 -40 22 -45 -3 -6 1 -13 9 -16 10
-4 16 -19 16 -40 0 -19 5 -34 11 -34 5 0 8 -4 5 -9 -3 -5 1 -11 9 -15 9 -3 12
-12 8 -22 -4 -11 -2 -15 4 -11 7 4 18 -24 30 -76 12 -46 25 -81 31 -80 6 2 9
-4 6 -12 -4 -8 -10 -12 -15 -9 -5 3 -6 -2 -3 -10 3 -9 10 -13 15 -10 5 3 10
-5 11 -18 1 -13 2 -30 3 -38 0 -8 4 -21 8 -28 5 -7 3 -12 -5 -12 -8 -1 -6 -6
6 -15 14 -11 16 -15 5 -15 -10 0 -11 -3 -2 -8 6 -4 14 -27 17 -52 3 -25 8 -56
10 -70 15 -76 26 -207 26 -296 0 -94 -26 -292 -49 -372 -5 -18 -10 -35 -10
-37 1 -22 -62 -187 -98 -260 -143 -289 -407 -561 -675 -696 -79 -40 -73 -23
10 25 113 66 213 144 312 245 287 292 431 646 430 1056 0 184 -7 235 -55 411
-107 393 -381 731 -748 925 -249 131 -530 189 -810 168 -209 -15 -365 -58
-554 -150 -191 -93 -332 -202 -472 -364 -100 -116 -133 -165 -203 -300 -58
-111 -72 -130 -42 -59 127 309 378 591 669 755 302 171 666 233 1012 174z
m13080 -187 c23 -19 11 -104 -27 -183 l-32 -66 -46 3 c-40 3 -49 8 -69 37 -53
79 -14 200 72 224 29 8 84 0 102 -15z m-1559 -83 c3 -52 -28 -105 -62 -105
-41 0 -55 11 -62 46 -11 58 35 106 96 101 22 -2 25 -7 28 -42z m32167 -67 c23
-10 27 -16 24 -34 0 -4 5 -10 12 -14 16 -11 -6 -67 -32 -80 -72 -39 -143 57
-84 116 27 27 42 29 80 12z m-32308 -229 c14 -30 53 -292 53 -359 0 -102 -61
-240 -106 -240 -15 0 -68 165 -67 210 5 133 37 370 54 402 14 26 51 19 66 -13z
m10891 -205 c31 -22 52 -66 52 -113 0 -75 -80 -136 -155 -117 -101 26 -128
174 -41 227 38 23 113 25 144 3z m19486 -5 c13 -7 30 -24 36 -40 24 -58 -37
-117 -95 -91 -53 25 -58 99 -7 126 33 19 35 19 66 5z m-29799 -410 c18 -57
-24 -129 -75 -129 -33 0 -50 23 -50 68 0 61 109 113 125 61z m8079 -50 c52
-41 23 -129 -43 -129 -45 0 -75 30 -75 75 0 67 64 96 118 54z m-3309 -230 c80
-33 146 -84 181 -139 25 -38 29 -55 28 -112 0 -59 -4 -74 -30 -109 -16 -23
-54 -62 -85 -86 -49 -38 -69 -47 -150 -63 -95 -19 -234 -32 -244 -22 -3 3 -11
7 -18 8 -87 19 -193 100 -227 176 -22 48 -27 148 -8 148 6 0 9 3 5 6 -8 9 18
59 50 95 37 41 114 88 181 110 85 28 236 22 317 -12z m-12457 -141 c40 -81 92
-206 92 -221 0 -27 -20 -30 -45 -7 -44 42 -86 136 -91 205 -6 79 12 88 44 23z
m38315 -378 c31 0 57 5 57 10 0 6 5 10 11 10 6 0 9 -6 6 -14 -7 -18 85 -40
129 -31 16 3 23 2 17 -1 -20 -9 -15 -21 12 -28 16 -4 25 -13 25 -25 0 -15 9
-20 48 -24 62 -7 106 -18 113 -29 3 -5 13 -6 22 -2 12 4 15 13 11 30 -4 16 -2
24 7 24 12 0 12 2 0 9 -9 6 -4 8 17 7 17 -1 34 -5 39 -10 4 -5 1 -7 -9 -3 -24
8 -31 -4 -10 -19 24 -19 32 -17 32 6 0 11 3 20 6 20 12 0 96 -63 101 -76 3 -8
13 -13 21 -12 9 2 17 -3 18 -9 1 -7 2 -19 3 -25 1 -10 3 -10 9 -1 10 16 29 3
34 -22 2 -13 11 -20 25 -20 28 0 176 -127 326 -280 91 -92 309 -343 375 -430
4 -5 28 -37 53 -70 25 -33 56 -78 69 -100 13 -22 27 -42 30 -45 7 -5 60 -86
118 -180 152 -244 314 -552 305 -579 -5 -14 -43 -57 -123 -138 l-25 -26 49 7
c27 3 59 6 72 6 17 0 24 6 24 20 0 14 7 20 24 20 13 0 27 6 29 13 3 6 6 2 6
-10 1 -13 -4 -23 -10 -23 -6 0 -9 -6 -6 -14 4 -10 -1 -13 -19 -11 -31 3 -64
-24 -127 -104 -32 -40 -43 -61 -33 -61 8 0 17 -4 21 -10 3 -5 -16 -2 -42 6
-26 8 -56 18 -65 21 -10 3 -18 8 -18 12 0 4 -16 5 -36 3 -25 -3 -38 -11 -44
-26 -4 -12 -24 -30 -44 -41 -20 -11 -36 -25 -36 -32 0 -7 -6 -13 -12 -14 -10
0 -10 -2 0 -6 23 -9 12 -23 -13 -17 -15 4 -25 2 -25 -5 0 -6 5 -11 10 -11 6 0
10 -5 10 -11 0 -7 -9 -9 -24 -5 -14 3 -28 0 -35 -8 -7 -8 -28 -17 -47 -21 -22
-4 -51 -22 -80 -51 -33 -32 -53 -44 -75 -44 -29 0 -40 14 -16 23 7 2 8 8 3 13
-5 5 -11 4 -13 -3 -3 -8 -22 -13 -44 -13 -37 0 -39 -2 -39 -30 0 -28 -2 -30
-39 -30 -22 0 -41 -4 -43 -8 -1 -5 -20 -12 -40 -15 -35 -5 -38 -4 -38 17 0 15
7 26 20 29 11 3 20 12 20 21 0 9 -8 16 -20 16 -11 0 -20 -4 -20 -10 0 -5 -5
-10 -11 -10 -6 0 -22 -9 -36 -20 -14 -11 -36 -20 -49 -20 -13 0 -24 -4 -24 -8
0 -5 -20 -17 -44 -27 -25 -10 -43 -22 -40 -27 3 -4 -1 -8 -10 -8 -8 0 -21 -3
-30 -6 -24 -9 -20 28 4 46 23 17 26 40 5 40 -19 0 -84 -33 -85 -42 0 -5 5 -8
10 -8 6 0 10 -9 10 -20 0 -11 -4 -20 -10 -20 -5 0 -10 9 -10 20 0 28 -21 25
-96 -12 -65 -32 -78 -50 -46 -63 16 -6 16 -7 -1 -17 -10 -5 -25 -7 -34 -4 -12
5 -13 9 -3 21 8 10 9 15 2 15 -6 0 -16 -9 -22 -20 -10 -18 -13 -19 -26 -5 -18
18 -21 18 -30 3 -4 -7 -3 -8 4 -4 7 4 12 2 12 -3 0 -15 -23 -14 -39 2 -10 10
-14 9 -22 -5 -6 -10 -14 -18 -19 -18 -12 0 -80 -46 -75 -51 2 -2 -17 -2 -41 0
-34 2 -44 7 -44 21 0 10 9 20 20 23 11 3 20 10 20 15 0 13 -32 25 -39 14 -10
-15 -95 -32 -102 -20 -4 7 -13 7 -27 -1 -11 -6 -37 -11 -56 -11 -20 0 -36 -4
-36 -10 0 -20 -54 -9 -109 22 -104 60 -136 76 -406 211 -148 74 -324 159 -390
187 -66 29 -142 62 -170 75 -81 37 -391 164 -510 210 -60 24 -168 65 -240 93
-166 64 -398 151 -498 187 -83 30 -128 58 -114 71 4 5 12 2 16 -5 7 -10 10 -9
16 8 8 26 -10 51 -37 51 -10 0 -16 4 -13 10 3 5 -5 26 -19 46 -14 21 -23 41
-20 46 3 4 -5 29 -17 54 -20 39 -21 47 -9 55 10 6 11 12 5 17 -5 4 -20 31 -32
60 -15 38 -18 52 -8 52 10 0 11 32 7 153 l-5 154 57 57 c45 47 54 61 45 72 -6
8 -21 15 -33 15 -20 1 -20 2 -1 6 11 2 30 6 43 9 18 3 22 11 22 39 0 24 6 39
20 47 13 9 20 24 20 45 0 35 17 53 31 32 6 -10 9 -11 9 -1 0 6 6 12 14 12 8 0
19 14 25 30 5 17 17 30 25 30 9 0 16 5 16 10 0 6 6 10 14 10 7 0 16 8 18 18 3
10 41 43 86 72 44 30 78 58 76 62 -3 4 4 8 16 8 12 0 36 11 53 24 43 32 96 53
154 61 494 66 989 159 1432 270 128 32 178 38 144 17 -6 -4 12 -7 40 -7 29 0
78 -3 110 -8 36 -4 57 -4 57 3 0 5 -12 12 -27 15 -16 4 -36 10 -45 16 -10 5
-32 9 -50 10 -31 1 -31 2 12 13 37 11 48 11 61 -1 9 -7 39 -13 72 -13z m3710
-37 c10 -10 17 -31 17 -54 0 -48 -30 -79 -77 -79 -45 0 -73 30 -73 78 0 72 78
104 133 55z m-15320 -63 c460 -90 856 -386 1064 -796 34 -65 74 -158 91 -205
57 -163 99 -418 67 -405 -9 3 -12 0 -9 -8 3 -8 1 -17 -5 -21 -6 -3 -11 -12
-11 -18 0 -7 4 -6 10 3 11 17 13 10 4 -14 -3 -9 -10 -13 -15 -10 -5 3 -9 0 -9
-6 0 -6 -4 -9 -8 -6 -5 3 -12 41 -15 84 -23 301 -159 613 -374 854 -217 245
-500 409 -826 480 -137 30 -445 32 -579 5 -229 -46 -451 -142 -617 -267 -51
-39 -95 -70 -97 -70 -3 0 2 13 10 28 8 16 48 53 88 84 219 165 459 265 726
303 133 20 365 13 505 -15z m-5187 -30 c73 -69 73 -171 0 -239 -36 -33 -125
-41 -173 -16 -98 53 -102 202 -7 266 43 29 143 23 180 -11z m20918 -91 c20
-16 26 -29 26 -59 0 -30 -6 -43 -26 -59 -15 -12 -37 -21 -49 -21 -12 0 -34 9
-49 21 -20 16 -26 29 -26 59 0 30 6 43 26 59 15 12 37 21 49 21 12 0 34 -9 49
-21z m-15779 -9 c-3 -5 1 -10 10 -10 10 0 13 5 9 12 -4 6 -3 8 3 5 6 -4 55
-11 109 -17 66 -7 103 -15 110 -25 6 -8 14 -12 17 -9 3 3 11 -4 17 -16 9 -17
17 -20 37 -15 16 4 22 2 18 -5 -3 -5 2 -10 13 -10 11 0 22 -9 25 -20 5 -21 27
-28 27 -9 0 5 5 7 10 4 8 -5 7 -11 -1 -21 -10 -12 -9 -17 1 -27 9 -8 11 -8 7
-1 -9 15 16 25 34 13 12 -7 12 -9 -1 -10 -8 0 -3 -5 13 -11 15 -5 27 -15 26
-21 -3 -25 2 -37 24 -58 l22 -22 -52 6 c-28 3 -99 26 -156 51 -118 52 -151 55
-245 26 -77 -24 -92 -21 -204 43 -84 47 -110 77 -69 77 21 0 37 15 24 23 -10
5 12 -1 34 -10 11 -4 14 -3 9 5 -4 8 0 12 11 13 16 0 16 1 -2 9 -14 6 -16 9
-5 10 8 1 26 4 40 5 14 2 36 8 50 14 33 13 43 13 35 1z m18426 -209 c16 -16
29 -39 29 -51 0 -25 -51 -80 -75 -80 -41 0 -84 40 -85 78 0 29 51 82 80 82 12
0 35 -13 51 -29z m-34796 -481 c25 -21 45 -66 45 -102 0 -74 -75 -137 -147
-123 -126 23 -143 199 -24 243 29 11 104 0 126 -18z m33200 -15 c30 -30 32
-64 4 -99 -36 -46 -119 -28 -133 29 -7 27 15 80 36 88 32 13 70 6 93 -18z
m2812 -60 c27 -19 37 -61 23 -96 -22 -52 -103 -62 -135 -16 -51 72 40 163 112
112z m-38602 -145 c15 -48 -31 -130 -74 -130 -53 0 -70 82 -26 125 31 32 91
35 100 5z m-14260 -137 c10 -16 31 -44 47 -63 63 -76 100 -143 95 -175 -4 -24
-24 -87 -34 -103 -1 -2 -17 1 -36 7 -20 7 -61 40 -99 79 -64 66 -158 187 -158
202 0 5 14 11 31 15 17 4 32 13 35 21 2 8 6 21 9 29 3 10 18 15 49 15 37 0 46
-4 61 -27z m19528 -135 c20 -24 22 -50 6 -81 -16 -30 -28 -37 -66 -37 -59 0
-91 58 -62 111 22 42 89 46 122 7z m17473 -695 c-2 -2 -43 21 -90 53 -47 31
-84 59 -81 62 2 3 42 33 87 68 l83 64 3 -122 c1 -66 1 -123 -2 -125z m15788
96 c20 -16 26 -29 26 -58 0 -21 -3 -41 -7 -45 -4 -3 -8 -14 -9 -24 -3 -15 -2
-16 9 -1 11 14 18 14 52 4 22 -7 56 -20 75 -28 41 -18 140 -118 140 -141 0 -9
4 -16 9 -16 13 0 22 -54 24 -145 2 -106 -21 -171 -85 -234 -76 -73 -101 -89
-157 -97 -28 -4 -54 -11 -57 -15 -3 -5 -27 -9 -53 -9 -73 0 -235 83 -246 127
-3 13 -10 23 -16 23 -8 0 -43 66 -57 110 -3 8 -7 48 -9 87 -4 67 -2 78 31 147
23 48 49 85 73 104 56 44 140 91 148 84 4 -4 3 3 -4 15 -20 40 -14 89 15 112
15 12 37 21 49 21 12 0 34 -9 49 -21z m-29261 -519 c468 -68 911 -247 1287
-519 637 -461 1063 -1150 1183 -1911 27 -167 28 -180 17 -180 -6 0 -9 4 -5 9
3 5 0 13 -6 17 -8 4 -9 3 -5 -4 4 -7 2 -12 -4 -12 -6 0 -9 -4 -5 -9 3 -6 -3
-15 -14 -21 -17 -9 -19 -8 -15 5 4 8 1 15 -5 15 -6 0 -11 -6 -12 -12 0 -7 -9
36 -20 95 -19 109 -73 320 -108 425 -24 70 -50 130 -52 120 -1 -5 -3 -12 -4
-18 -1 -5 -3 -13 -4 -17 -1 -5 -5 -1 -11 7 -6 9 -5 20 3 29 9 12 9 13 0 8 -8
-5 -18 4 -29 25 -9 18 -34 57 -55 87 -23 32 -39 66 -39 82 0 84 -86 134 -182
105 -19 -5 -28 -4 -28 3 0 13 45 36 89 45 37 7 61 22 61 39 0 18 -241 247
-282 268 -22 11 -74 29 -116 40 -81 20 -116 46 -128 95 -5 18 0 32 15 48 27
29 27 69 -3 132 -39 85 -81 107 -247 134 -95 15 -111 13 -149 -15 -105 -77
-653 -193 -1015 -215 -186 -12 -398 -11 -415 0 -34 23 12 32 256 50 175 13
243 27 709 142 238 58 458 160 488 226 10 21 8 27 -18 50 -17 14 -29 33 -27
42 3 21 -90 64 -121 56 -31 -8 -67 3 -61 19 4 9 -12 17 -53 25 -68 14 -123 39
-178 85 -48 39 -109 50 -184 34 -40 -8 -67 -8 -117 2 -35 7 -64 16 -64 21 0 4
5 8 12 8 8 0 9 3 2 10 -14 14 -145 30 -259 31 -55 0 -220 0 -368 -1 -282 -1
-333 6 -265 34 21 9 44 16 52 16 31 0 24 19 -11 31 -27 9 -92 10 -243 5 -138
-4 -200 -3 -190 4 10 6 11 10 3 10 -7 0 -13 9 -13 20 0 22 36 46 63 41 11 -1
17 4 17 18 0 21 -19 24 -32 6 -4 -6 -8 -2 -8 7 0 13 6 17 23 14 12 -2 30 1 41
6 10 6 21 6 25 2 10 -14 50 -14 136 1 44 7 126 17 183 20 56 4 102 11 102 16
0 4 7 6 15 2 12 -4 15 0 11 18 -2 13 -8 33 -12 43 -7 19 -3 19 120 13 69 -4
190 -16 269 -27z m2150 -801 c34 -37 34 -69 1 -108 -21 -25 -33 -31 -65 -31
-98 0 -125 127 -36 165 40 18 65 11 100 -26z m-4233 -139 c28 -28 12 -55 -57
-104 -51 -35 -59 -38 -109 -34 -30 3 -56 7 -59 10 -14 13 19 99 44 117 51 36
150 42 181 11z m20906 -94 c21 -18 28 -32 28 -60 0 -76 -90 -110 -140 -52 -32
37 -30 71 5 107 36 35 70 37 107 5z m-20047 -401 c30 -15 61 -76 61 -121 0
-34 -43 -76 -67 -66 -43 17 -82 47 -87 66 -11 41 -6 100 11 118 20 22 44 23
82 3z m2048 -418 c26 -26 8 -61 -50 -99 -29 -19 -61 -38 -72 -41 -19 -6 -91 6
-101 16 -8 8 14 89 29 104 40 41 161 53 194 20z m-10916 -946 c36 -36 38 -79
6 -116 -62 -73 -183 -3 -147 85 27 65 92 79 141 31z m7643 -302 c54 -25 74
-128 33 -167 -25 -23 -26 -23 -101 24 -10 6 -19 29 -23 62 -9 78 27 110 91 81z
m3858 -776 c10 -9 18 -30 18 -48 0 -75 -92 -146 -193 -149 -51 -1 -52 0 -55
30 -3 27 3 34 54 67 31 20 60 37 63 37 4 0 22 18 40 40 35 44 46 48 73 23z
m-28643 -278 c56 -29 63 -106 14 -145 -35 -27 -75 -25 -112 6 -25 20 -31 34
-31 64 0 30 6 44 31 64 35 30 58 32 98 11z m41919 -61 c143 -59 178 -249 65
-356 -105 -100 -282 -66 -344 67 -49 105 1 239 106 286 49 23 123 24 173 3z
m-21139 -80 c43 -54 10 -124 -58 -124 -47 0 -75 28 -75 75 0 47 28 75 75 75
29 0 42 -6 58 -26z m22856 -262 c39 -27 98 -68 133 -91 l62 -42 -132 -67 c-73
-37 -134 -67 -135 -67 0 0 -8 63 -17 140 -10 77 -20 156 -23 175 l-6 34 24
-17 c13 -9 56 -39 94 -65z m-19123 -221 l38 -49 -66 -31 c-78 -37 -85 -37
-109 -11 -18 20 -18 21 1 14 10 -4 4 5 -14 19 l-34 25 24 15 c37 23 113 65
118 66 3 0 22 -22 42 -48z m-8262 -261 c12 -12 20 -33 20 -55 0 -22 -8 -43
-20 -55 -12 -12 -33 -20 -55 -20 -22 0 -43 8 -55 20 -12 12 -20 33 -20 55 0
22 8 43 20 55 12 12 33 20 55 20 22 0 43 -8 55 -20z m15019 -1656 c82 -69 -14
-197 -103 -139 -36 24 -51 68 -36 105 26 63 87 78 139 34z m-35675 -459 c39
-36 37 -94 -5 -129 -33 -28 -59 -32 -92 -14 -34 18 -46 39 -47 81 0 48 38 87
85 87 20 0 42 -9 59 -25z m12147 -1264 c60 -60 24 -151 -60 -151 -32 0 -44 6
-65 31 -29 34 -32 62 -12 98 31 55 93 65 137 22z"/>
<path d="M33710 9343 c65 -68 82 -83 112 -99 26 -13 165 -29 341 -39 49 -2 94
-8 100 -12 7 -4 6 0 -2 10 -11 14 -11 17 0 17 64 0 -211 89 -418 136 -84 19
-158 34 -165 34 -7 0 8 -21 32 -47z"/>
</g>
</svg>
